<?xml version="1.0" encoding="utf-8"?>
<!-- Generator: Adobe Illustrator 27.3.1, SVG Export Plug-In . SVG Version: 6.00 Build 0)  -->
<svg version="1.1" id="Layer_1" xmlns="http://www.w3.org/2000/svg" xmlns:xlink="http://www.w3.org/1999/xlink" x="0px" y="0px"
	 viewBox="0 0 1920 154.3" style="enable-background:new 0 0 1920 154.3;" xml:space="preserve">
<style type="text/css">
	.st0{fill:#C8A878;}
</style>
<g>
	<path class="st0" d="M-403.8,1.9C-304.4-1.7-200,8.3-93,31.8C-40.7,43.3,8.1,56.9,55.2,70c36.5,10.2,74.2,20.7,113.3,30.1
		c109.1,26.4,210.4,38.9,309.6,38.3c133.5-0.8,258.1-25.4,378.6-49.2c103.1-20.3,209.6-41.4,323.6-48.3
		c173.9-10.6,337.2,12.7,473.9,36.8c22.2,3.9,44.7,8,66.5,12c118.9,21.6,241.9,44,380.4,50.1c158.1,7,359.9-13.7,439.6-66.8l4.9,0.7
		c-81,54-285.6,75-445.8,67.9c-139.5-6.2-262.9-28.6-382.2-50.3c-21.8-4-44.3-8.1-66.5-12c-136-24-298.2-47.1-470.5-36.6
		c-112.9,6.9-219,27.8-321.6,48c-121.2,23.9-246.4,48.6-381.5,49.5c-100.4,0.6-202.7-12-312.7-38.6c-39.3-9.5-77-20-113.6-30.2
		C4.4,58.4-44.3,44.8-96.4,33.4C-206.5,9.2-313.8-0.6-415.3,4.2c-106,5-230.5,32.5-252.2,73.5l-5.5-0.1
		c22.2-41.9,149.2-70,257.4-75.2C-411.6,2.2-407.7,2-403.8,1.9z"/>
</g>
</svg>
